<?xml version="1.0" encoding="UTF-8" standalone="no"?>
<!DOCTYPE svg PUBLIC "-//W3C//DTD SVG 20010904//EN"
              "http://www.w3.org/TR/2001/REC-SVG-20010904/DTD/svg10.dtd">
              
<svg xmlns="http://www.w3.org/2000/svg"
     width="5.02021in" height="3.40582in"
     viewBox="0 0 482 327">
       <style>
        .frame{
        fill: black;
        stroke: black;
        stroke-width: 1;
        }
        
        .logoFrame{
        fill: white;
        stroke: black;
        stroke-width: 1;}
        
        .button{
        fill: black; 
        stroke: black;
        stroke-width: 1;
        }

        .buttonPressed{
            fill: orange !important;
        }
        
        .x{
        fill: #40ccd0;
        }
        
        .y{
        fill: #ecdb33;
        }
        
        .a{
        fill: #3cdb4e;
        }
        
        .b{
        fill: #d04242;
        }
        
        .menuButton{
        fill: grey; 
        stroke: black;
        stroke-width: 1;
        }
        
        .stick{
        fill: black; 
        stroke: black;
        stroke-width: 1;
        }
        
        .padOut {
        fill: white;
        stroke: black;
        stroke-width: 1;
        }

        .triggerBackground{
        fill: white;
        stroke: black;
        stroke-width: 1;
        }

        .trigger{
        fill: orange !important;
        fill-opacity: 0%;
        }

     </style>
        <path class="frame" id="controllerFrame" d="M 359.00,29.63
           C 372.58,33.02 386.12,37.20 399.00,42.72
             405.18,45.37 414.21,49.21 418.79,54.10
             422.49,58.05 426.06,66.86 428.28,72.00
             428.28,72.00 443.05,109.00 443.05,109.00
             453.41,136.78 463.02,165.01 469.42,194.00
             472.38,207.37 475.98,227.50 476.00,241.00
             476.00,241.00 476.00,260.00 476.00,260.00
             475.73,282.71 465.61,306.40 444.00,316.14
             439.89,317.99 431.42,321.39 427.00,320.69
             423.54,320.13 419.62,316.94 417.00,314.70
             410.35,309.01 404.97,302.28 398.96,296.00
             386.58,283.06 373.73,270.25 360.00,258.75
             346.39,247.36 338.56,240.03 320.00,240.00
             320.00,240.00 163.00,240.00 163.00,240.00
             144.92,240.03 137.33,246.80 124.00,257.92
             110.21,269.43 97.55,282.15 85.01,295.00
             78.33,301.86 72.47,309.43 65.00,315.54
             61.26,318.60 58.07,321.22 53.00,320.68
             49.39,320.30 44.38,318.39 41.00,316.99
             16.91,306.97 7.04,282.73 7.00,258.00
             7.00,258.00 7.00,241.00 7.00,241.00
             7.06,202.16 26.73,144.77 40.32,108.00
             40.32,108.00 54.72,72.00 54.72,72.00
             57.27,66.10 60.60,57.61 65.10,53.10
             69.87,48.33 79.69,44.56 86.00,41.85
             100.97,35.43 123.72,27.19 140.00,27.00
             143.51,26.96 147.71,26.74 151.00,27.99
             157.35,30.41 160.71,35.25 165.08,40.00
             165.08,40.00 185.98,63.00 185.98,63.00
             189.96,67.28 192.85,71.46 198.00,74.52
             203.36,77.70 208.95,77.99 215.00,78.00
             215.00,78.00 267.00,78.00 267.00,78.00
             284.13,77.97 288.36,72.26 299.15,60.00
             299.15,60.00 313.58,44.00 313.58,44.00
             320.31,36.24 325.61,28.94 336.00,26.47
             344.24,25.32 351.09,27.65 359.00,29.63 Z" />
             <path class="button" id="leftBumper" d="M 80.79,31.63
             C 83.98,28.04 100.76,20.98 106.00,18.72
             124.06,10.93 142.33,2.61 162.00,9.70
             167.88,11.82 172.84,15.56 178.00,19.00
             178.00,19.00 168.00,39.00 168.00,39.00
             159.16,34.45 158.63,25.19 143.00,25.00
             127.98,24.83 109.98,30.41 96.00,35.81
             96.00,35.81 75.00,44.00 75.00,44.00
             76.11,41.38 79.24,33.37 80.79,31.63 Z" />
         <path class="button" id="rightBumper" d="M 305.73,21.09
             C 305.75,18.00 309.71,15.85 312.00,14.34
             319.04,9.74 326.55,7.10 335.00,7.00
             352.21,6.80 370.64,15.44 386.00,22.75
             390.15,24.72 399.34,28.40 402.21,31.63
             403.76,33.37 406.89,41.38 408.00,44.00
             408.00,44.00 384.00,35.05 384.00,35.05
             375.61,31.99 350.35,24.79 342.00,24.18
             327.59,23.14 324.19,32.36 315.00,39.00
             313.22,35.68 305.71,23.92 305.73,21.09 Z" />
         <path class="logoFrame" d="M 214.00,19.00
             C 214.00,19.00 231.00,18.00 231.00,18.00
             231.00,18.00 253.00,18.00 253.00,18.00
             253.00,18.00 269.00,19.00 269.00,19.00
             269.00,19.00 303.00,19.00 303.00,19.00
             304.08,24.30 306.88,28.38 309.60,33.00
             310.88,35.16 313.20,38.42 312.85,41.00
             312.49,43.59 309.75,46.13 308.07,48.00
             308.07,48.00 296.28,61.00 296.28,61.00
             292.07,65.78 288.08,71.03 282.00,73.52
             276.44,75.79 264.41,75.00 258.00,75.04
             258.00,75.04 243.00,75.04 243.00,75.04
             243.00,75.04 236.00,75.82 236.00,75.82
             236.00,75.82 228.00,75.02 228.00,75.02
             228.00,75.02 210.00,75.02 210.00,75.02
             196.49,74.98 193.75,69.54 185.17,60.00
             182.21,56.72 170.42,44.39 169.87,41.00
             169.44,38.39 171.71,35.17 173.00,33.00
             175.97,28.00 178.37,24.70 180.00,19.00
             180.00,19.00 214.00,19.00 214.00,19.00 Z" />
        
        <circle class="padOut" cx="180" cy="180" r="37" />
        <path class="button" id="dPadDown" d="M  180.00,180.00
        L 170.00,190.00 170.00,210.00 190.00,210.00 190.00,190.00
        Z" />
        <path class="button" id="dPadUp" d="M  180.00,180.00
        L 170.00,170.00 170.00,150.00 190.00,150.00 190.00,170.00
        Z" />
        <path class="button" id="dPadLeft" d="M 180.00,180.00
        L 170.00,190.00 150.00,190.00 150.00,170.00 170.00,170.00
        Z" />
        <path class="button" id="dPadRight" d="M 180.00,180.00
        L 190.00,170.00 210.00,170.00 210.00,190.00 190.00,190.00
        Z" />
        <circle class="padOut" id="leftStickOut" cx="122" cy="100" r="34" />
        <circle class="stick" id="leftStick" cx="122" cy="100" r="17" />

        <circle class="padOut" id="rightStickOut" cx="304" cy="173" r="34" />
        <circle class="stick" id="rightStick" cx="304" cy="173" r="17" />

        <circle class="button x" id="xButton" cx="330" cy="101" r="15" />
        <circle class="button y" id="yButton" cx="363" cy="70"  r="15" />
        <circle class="button a" id="aButton" cx="363" cy="133" r="15" />
        <circle class="button b" id="bButton" cx="397" cy="101" r="15" />
        
        <circle class="menuButton" id="selectButton" cx="207" cy="101" r="8"/>
        <circle class="menuButton" id="startButton" cx="276" cy="101" r="8" />
        <circle class="menuButton" id="xBoxButton" cx="240" cy="48" r="15" />

        <path class="triggerBackground"  d="M 20,250 a40,100 0 0,0 70,0" />
        <path id="leftTrigger" d="M 20,250 a40,100 0 0,0 70,0" fill="orange" fill-opacity="0%"/>
        <path class="triggerBackground" d="M 390,250 a40,100 0 0,0 70,0" />
        <path id="rightTrigger" d="M 390,250 a40,100 0 0,0 70,0" fill="orange" fill-opacity="0%"/>

</svg>